<svg width="800.0000000000001" height="800.0000000000001" xmlns="http://www.w3.org/2000/svg" transform="scale(1 1)">

 <title>credit-card</title>
 <g>
  <title>Layer 1</title>
  <g stroke="null" id="credit-card-Filled">
   <path stroke="null" fill="#aaaaaa" d="m609.21055,4.5l-418.42107,0a188.58238,237.85893 0 0 0 -188.28948,237.4895l795.00004,0a188.58238,237.85893 0 0 0 -188.28948,-237.4895zm-606.71055,343.04039l0,211.10178a188.58238,237.85893 0 0 0 188.28948,237.4895l418.42107,0a188.58238,237.85893 0 0 0 188.28948,-237.4895l0,-211.10178l-795.00004,0zm313.8158,263.87722l-125.52632,0a41.84211,52.77544 0 0 1 0,-105.55089l125.52632,0a41.84211,52.77544 0 0 1 0,105.55089z" class="cls-1" id="credit-card-Filled-2"/>
  </g>
 </g>
</svg>