<svg width="800" height="800" xmlns="http://www.w3.org/2000/svg" transform="scale(1 1)" fill="none">

 <g>
  <title>Layer 1</title>
  <g stroke="null" id="svg_11">
   <path stroke="null" id="svg_1" fill="#aaaaaa" d="m797.00003,109.54546c0,-59.94785 -48.5958,-108.54546 -108.54546,-108.54546l-144.72728,0c-19.98322,0 -36.18182,16.19932 -36.18182,36.18182c0,19.9825 16.1986,36.18182 36.18182,36.18182l144.72728,0c19.98322,0 36.18182,16.19932 36.18182,36.18182l0,144.72728c0,19.9825 16.1986,36.18182 36.18182,36.18182c19.98322,0 36.18182,-16.19932 36.18182,-36.18182l0,-144.72728z"/>
   <path stroke="null" id="svg_2" fill="#aaaaaa" d="m797.00003,543.72729c0,-19.98322 -16.1986,-36.18182 -36.18182,-36.18182c-19.98322,0 -36.18182,16.1986 -36.18182,36.18182l0,144.72728c0,19.98322 -16.1986,36.18182 -36.18182,36.18182l-144.72728,0c-19.98322,0 -36.18182,16.1986 -36.18182,36.18182c0,19.98322 16.1986,36.18182 36.18182,36.18182l144.72728,0c59.94966,0 108.54546,-48.5958 108.54546,-108.54546l0,-144.72728z"/>
   <path stroke="null" id="svg_3" fill="#aaaaaa" d="m109.54546,724.63639c-19.9825,0 -36.18182,-16.1986 -36.18182,-36.18182l0,-144.72728c0,-19.98322 -16.19932,-36.18182 -36.18182,-36.18182c-19.9825,0 -36.18182,16.1986 -36.18182,36.18182l0,144.72728c0,59.94966 48.59761,108.54546 108.54546,108.54546l144.72728,0c19.9825,0 36.18182,-16.1986 36.18182,-36.18182c0,-19.98322 -16.19932,-36.18182 -36.18182,-36.18182l-144.72728,0z"/>
   <path stroke="null" id="svg_4" fill="#aaaaaa" d="m1,254.27274c0,19.9825 16.19932,36.18182 36.18182,36.18182c19.9825,0 36.18182,-16.19932 36.18182,-36.18182l0,-144.72728c0,-19.9825 16.19932,-36.18182 36.18182,-36.18182l144.72728,0c19.9825,0 36.18182,-16.19932 36.18182,-36.18182c0,-19.9825 -16.19932,-36.18182 -36.18182,-36.18182l-144.72728,0c-59.94785,0 -108.54546,48.59761 -108.54546,108.54546l0,144.72728z"/>
   <path stroke="null" id="svg_5" fill="#aaaaaa" d="m362.81819,181.9091c0,-19.9825 -16.1986,-36.18182 -36.18182,-36.18182l-144.72728,0c-19.9825,0 -36.18182,16.19932 -36.18182,36.18182l0,144.72728c0,19.98322 16.19932,36.18182 36.18182,36.18182l144.72728,0c19.98322,0 36.18182,-16.1986 36.18182,-36.18182l0,-144.72728zm-72.36364,54.27273c0,-9.99125 -8.09966,-18.09091 -18.09091,-18.09091l-36.18182,0c-9.99125,0 -18.09091,8.09966 -18.09091,18.09091l0,36.18182c0,9.99125 8.09966,18.09091 18.09091,18.09091l36.18182,0c9.99125,0 18.09091,-8.09966 18.09091,-18.09091l0,-36.18182z" clip-rule="evenodd" fill-rule="evenodd"/>
   <path stroke="null" id="svg_6" fill="#aaaaaa" d="m616.09093,435.18183c19.98322,0 36.18182,16.1986 36.18182,36.18182l0,144.72728c0,19.98322 -16.1986,36.18182 -36.18182,36.18182l-144.72728,0c-19.98322,0 -36.18182,-16.1986 -36.18182,-36.18182l0,-144.72728c0,-19.98322 16.1986,-36.18182 36.18182,-36.18182l144.72728,0zm-108.54546,90.45455c0,-9.9898 8.10111,-18.09091 18.09091,-18.09091l36.18182,0c9.9898,0 18.09091,8.10111 18.09091,18.09091l0,36.18182c0,9.9898 -8.10111,18.09091 -18.09091,18.09091l-36.18182,0c-9.9898,0 -18.09091,-8.10111 -18.09091,-18.09091l0,-36.18182z" clip-rule="evenodd" fill-rule="evenodd"/>
   <path stroke="null" id="svg_7" fill="#aaaaaa" d="m471.36365,145.72728c-19.98322,0 -36.18182,16.19932 -36.18182,36.18182c0,19.98286 16.1986,36.18182 36.18182,36.18182l90.45455,0c9.9898,0 18.09091,8.09966 18.09091,18.09091l0,90.45455c0,19.98322 16.1986,36.18182 36.18182,36.18182c19.98322,0 36.18182,-16.1986 36.18182,-36.18182l0,-144.72728c0,-19.9825 -16.1986,-36.18182 -36.18182,-36.18182l-144.72728,0z"/>
   <path stroke="null" id="svg_8" fill="#aaaaaa" d="m471.36365,254.27274c-19.98322,0 -36.18182,16.19896 -36.18182,36.18182l0,36.18182c0,19.98322 16.1986,36.18182 36.18182,36.18182c19.98322,0 36.18182,-16.1986 36.18182,-36.18182l0,-36.18182c0,-19.9825 -16.1986,-36.18182 -36.18182,-36.18182z"/>
   <path stroke="null" id="svg_9" fill="#aaaaaa" d="m181.9091,435.18183c-19.9825,0 -36.18182,16.1986 -36.18182,36.18182l0,72.36364c0,19.98322 16.19932,36.18182 36.18182,36.18182c19.98286,0 36.18182,-16.1986 36.18182,-36.18182l0,-18.09091c0,-9.9898 8.09966,-18.09091 18.09091,-18.09091l90.45455,0c19.98322,0 36.18182,-16.1986 36.18182,-36.18182c0,-19.98322 -16.1986,-36.18182 -36.18182,-36.18182l-144.72728,0z"/>
   <path stroke="null" id="svg_10" fill="#aaaaaa" d="m326.63638,579.90911c-19.98286,0 -36.18182,16.1986 -36.18182,36.18182c0,19.98322 16.19896,36.18182 36.18182,36.18182c19.98322,0 36.18182,-16.1986 36.18182,-36.18182c0,-19.98322 -16.1986,-36.18182 -36.18182,-36.18182z"/>
  </g>
 </g>
</svg>