<svg width="1000px" height="398.9px" xmlns="http://www.w3.org/2000/svg" xmlns:svg="http://www.w3.org/2000/svg" enable-background="new 0 0 1000 398.9" version="1.1" xml:space="preserve" transform="rotate(0) scale(1, 1)">
 <style type="text/css">.st0 { fill: #aaaaaa; }.st1 { fill: #aaaaaa; }.st2 { fill: #aaaaaa; }.st3 { fill: #aaaaaa; }.st4 { fill: #aaaaaa; }.st5 { fill: #aaaaaa; }.st6 { fill: #aaaaaa; }.st7 { fill: #aaaaaa; }.st8 { fill: #aaaaaa; }</style>
 <g class="layer">
  <title>Layer 1</title>
  <g id="svg_2">
   <g id="svg_3">
    <path class="st0" d="m100.3,199.4l-52,30l-48.3,83.7l196.9,-113.7l-96.6,0z" id="svg_4"/>
   </g>
  </g>
  <g id="svg_5">
   <g id="svg_6">
    <path class="st1" d="m248.9,113.7l-52,30l-48.3,83.7l196.9,-113.7l-96.6,0z" id="svg_7"/>
   </g>
  </g>
  <g id="svg_8">
   <g id="svg_9">
    <polygon class="st2" id="svg_10" points="196.9,83.7 148.6,0 148.6,171.5 148.6,227.4 148.6,398.9 196.9,315.2    "/>
   </g>
  </g>
  <g id="svg_11">
   <g id="svg_12">
    <polygon class="st3" id="svg_13" points="148.6,0 196.9,83.7 248.9,113.7 345.5,113.7    "/>
   </g>
  </g>
  <g id="svg_14">
   <g id="svg_15">
    <polygon class="st4" id="svg_16" points="148.6,171.5 148.6,398.9 196.9,315.2 196.9,255.2    "/>
   </g>
  </g>
  <g id="svg_17">
   <g id="svg_18">
    <path class="st5" d="m248.9,285.2l-52,30l-48.3,83.7l196.9,-113.7l-96.6,0z" id="svg_19"/>
   </g>
  </g>
  <g id="svg_20">
   <g id="svg_21">
    <polygon class="st6" id="svg_22" points="0,85.8 0,313.1 48.3,229.5 48.3,169.4    "/>
   </g>
  </g>
  <g id="svg_23">
   <g id="svg_24">
    <polygon class="st7" id="svg_25" points="148.6,171.5 148.7,171.6 0,85.8 48.3,169.4 248.9,285.2 345.5,285.2    "/>
   </g>
  </g>
 </g>
</svg>