<svg width="800" height="800" xmlns="http://www.w3.org/2000/svg" enable-background="new 0 0 1000 398.9" version="1.1" xml:space="preserve" transform="scale(1 1)">
 <g class="layer">
  <title>Layer 1</title>
  <g id="svg_1" stroke="null">
   <g id="svg_2" stroke="null">
    <g id="svg_3" stroke="null">
     <path class="st0" d="m231.51737,400.24284l-120.02895,60.21708l-111.48843,168.00564l454.49422,-228.22272l-222.97685,0l0.00001,0z" id="svg_4" fill="#aaaaaa" stroke="null"/>
    </g>
   </g>
   <g id="svg_5" stroke="null">
    <g id="svg_6" stroke="null">
     <path class="st1" d="m574.52317,228.22272l-120.02895,60.21708l-111.48843,168.00564l454.49422,-228.22272l-222.97685,0l0.00001,0z" id="svg_7" fill="#aaaaaa" stroke="null"/>
    </g>
   </g>
   <g id="svg_8" stroke="null">
    <g id="svg_9" stroke="null">
     <polygon class="st2" id="svg_10" points="454.49420317246404,168.00563049316406 343.00581345723185,0 343.00581345723185,344.240966796875 343.00581345723185,456.4454345703125 343.00581345723185,800.6863403320312 454.49420317246404,632.6807861328125 " fill="#aaaaaa" stroke="null"/>
    </g>
   </g>
   <g id="svg_11" stroke="null">
    <g id="svg_12" stroke="null">
     <polygon class="st3" id="svg_13" points="343.00581345723185,0 454.49420317246404,168.00563049316406 574.5231319168852,228.22271728515625 797.5000166296959,228.22271728515625 " fill="#aaaaaa" stroke="null"/>
    </g>
   </g>
   <g id="svg_14" stroke="null">
    <g id="svg_15" stroke="null">
     <polygon class="st4" id="svg_16" points="343.00581345723185,344.240966796875 343.00581345723185,800.6863403320312 454.49420317246404,632.6807861328125 454.49420317246404,512.24658203125 " fill="#aaaaaa" stroke="null"/>
    </g>
   </g>
   <g id="svg_17" stroke="null">
    <g id="svg_18" stroke="null">
     <path class="st5" d="m574.52317,572.46368l-120.02895,60.21708l-111.48843,168.00564l454.49422,-228.22272l-222.97685,0l0.00001,0z" id="svg_19" fill="#aaaaaa" stroke="null"/>
    </g>
   </g>
   <g id="svg_20" stroke="null">
    <g id="svg_21" stroke="null">
     <polygon class="st6" id="svg_22" points="0,172.22085571289062 0,628.465576171875 111.48842480934763,460.6606140136719 111.48842480934763,340.0257263183594 " fill="#aaaaaa" stroke="null"/>
    </g>
   </g>
   <g id="svg_23" stroke="null">
    <g id="svg_24" stroke="null">
     <polygon class="st7" id="svg_25" points="343.00581345723185,344.240966796875 343.23662745452384,344.44171142578125 0,172.22085571289062 111.48842480934763,340.0257263183594 574.5231319168852,572.4636840820312 797.5000166296959,572.4636840820312 " fill="#aaaaaa" stroke="null"/>
    </g>
   </g>
  </g>
 </g>

</svg>